<svg xmlns="http://www.w3.org/2000/svg" width="73" height="55" viewBox="0 0 73 55">
    <g fill="none" fill-rule="evenodd">
        <path fill="#1DAAA6" d="M38.538 24.374c0 1.558-.527 2.851-1.582 3.88-1.055 1.03-2.361 1.545-3.918 1.545-1.607 0-2.925-.515-3.954-1.545-1.03-1.029-1.544-2.322-1.544-3.88 0-1.555.513-2.863 1.544-3.917 1.03-1.054 2.347-1.58 3.954-1.58 1.557 0 2.863.526 3.918 1.58 1.055 1.054 1.582 2.362 1.582 3.917"/>
        <path fill="#2A2D33" d="M38.463 54.098c-.353.2-1.558.302-3.616.302-2.36 0-4.057-.503-5.085-1.506-1.03-1.005-1.545-2.588-1.545-4.747V34.754c.152-.049.603-.113 1.357-.188a21.36 21.36 0 0 1 2.109-.112c4.52 0 6.78 1.985 6.78 5.95v13.694zM55.45 54.098c-.452.2-1.707.302-3.767.302-4.32 0-6.479-2.085-6.479-6.253V.537c.152-.052.604-.115 1.357-.19a21.36 21.36 0 0 1 2.11-.113c4.52 0 6.78 1.985 6.78 5.952v47.912zM14.75 8.567c-.665 0-1.377.038-2.143.113-.764.075-1.223.139-1.377.189v10.763H7.08c-4.234 0-6.35 2.16-6.35 6.48 0 2.058.103 3.314.307 3.766H11.23v18.27c0 4.167 2.192 6.252 6.579 6.252 2.09 0 3.365-.101 3.825-.302V14.52c0-3.968-2.295-5.953-6.885-5.953M72.191 54.098c-.451.2-1.707.302-3.766.302-4.32 0-6.48-2.085-6.48-6.253V.537c.152-.052.604-.115 1.357-.19a21.36 21.36 0 0 1 2.11-.113c4.52 0 6.78 1.985 6.78 5.952v47.912z"/>
    </g>
</svg>
