<svg xmlns="http://www.w3.org/2000/svg" width="120" height="108" viewBox="0 0 120 108">
    <g fill="none" fill-rule="evenodd">
        <path d="M-7.13-13.676h135v135h-135z"/>
        <path fill="#126786" fill-rule="nonzero" d="M44.57 18.813a1.129 1.129 0 0 0 0-2.243 1.129 1.129 0 0 0 0 2.243zM51.8 18.813a1.129 1.129 0 0 0 0-2.243 1.129 1.129 0 0 0 0 2.243zM71.8 27.527a1.129 1.129 0 0 0 0-2.2 1.129 1.129 0 0 0 0 2.243v-.043zM79.085 27.527a1.129 1.129 0 0 0 0-2.243 1.129 1.129 0 0 0 0 2.243z"/>
        <path fill="#EE8748" fill-rule="nonzero" d="M72.185 57.955a.971.971 0 0 1-.114-1.928l1.885-.229a11.629 11.629 0 0 1 2.572 0l2.314.243a.971.971 0 0 1-.2 1.914l-2.314-.242a9.5 9.5 0 0 0-2.143 0l-1.886.228-.114.014zM29.528 74.127H8.542a.971.971 0 1 1 0-1.929h20.986a.971.971 0 1 1 0 1.929z"/>
        <path fill="#126786" fill-rule="nonzero" d="M15.4 39.884a1.129 1.129 0 0 0 0-2.243 1.129 1.129 0 0 0 0 2.243z"/>
        <path fill="#000" fill-rule="nonzero" d="M22.67 39.884a1.129 1.129 0 0 0 0-2.243 1.129 1.129 0 0 0 0 2.243z"/>
        <path fill="#EE8748" fill-rule="nonzero" d="M107.97 74.427c-7.752-.008-14.034-6.29-14.042-14.043a.964.964 0 1 1 1.928 0c.024 6.676 5.438 12.078 12.115 12.086a.964.964 0 0 1 0 1.928v.029z"/>
        <path fill="#1DAAA6" fill-rule="nonzero" d="M111.242 52.57h-4.486v-3.815a14.043 14.043 0 1 0-13.985-23.428V21.37a17.029 17.029 0 0 0-30.829-10 14.043 14.043 0 0 0-27.786 2.857v.243c0 .071 0 0 0 0a14.071 14.071 0 0 0 9.314 12.957l-.542 3.228-1.072.429-5.543 2.229c-.533-9.206-8.297-16.315-17.514-16.036C9.582 17.555 2.26 25.12 2.285 34.34l-.557 32.257a.971.971 0 0 0 .785.957H2.7v5.486a6.586 6.586 0 0 0 1.429 4.086L.913 97.713a.957.957 0 0 0 .958 1.114h6.971v5.071a3.643 3.643 0 0 0 3.643 3.643h.743a3.643 3.643 0 0 0 3.6-3.643v-4.014h4.428v4.014a3.643 3.643 0 0 0 3.643 3.643h.7a3.643 3.643 0 0 0 3.643-3.643v-5.071h4.943l.071.428c.088.453.482.781.943.786h.643v3.857a3.643 3.643 0 0 0 3.643 3.643h.7a3.643 3.643 0 0 0 3.643-3.643v-3.857h.514c.47 0 .874-.336.957-.8l2.857-16.957 2.857 16.957c.083.464.487.8.958.8h.514v3.857a3.643 3.643 0 0 0 3.643 3.643h.7a3.643 3.643 0 0 0 3.714-3.643v-3.857h.643c.463 0 .86-.33.943-.786a66.3 66.3 0 0 0 1-7.7h2.7v12.343a3.643 3.643 0 0 0 3.643 3.643h.7a3.643 3.643 0 0 0 3.642-3.643V91.555H77.1v12.343a3.643 3.643 0 0 0 3.643 3.643h.7a3.643 3.643 0 0 0 3.643-3.643V91.555h2.428a66.043 66.043 0 0 0 1 7.7c.083.456.48.787.943.786h.643v3.857a3.643 3.643 0 0 0 3.643 3.643h.7a3.643 3.643 0 0 0 3.714-3.643v-3.857h.515a.971.971 0 0 0 .942-.743l2.858-12.085 2.857 12.085a.971.971 0 0 0 .943.743h.514v3.857a3.643 3.643 0 0 0 3.643 3.643h.7a3.643 3.643 0 0 0 3.743-3.643v-3.857h.642c.463 0 .86-.33.943-.786a68.9 68.9 0 0 0 1.2-13.028 71.614 71.614 0 0 0-.543-8.714 6.6 6.6 0 0 0 1.758-4.472v-9.143a.971.971 0 0 0 .957-.957V61.17a8.571 8.571 0 0 0-8.586-8.6zm-3.229 1.928a5.571 5.571 0 0 1-10.985 0h2.228a.971.971 0 0 0 .957-.957v-4.286a13.9 13.9 0 0 0 4.615 0v4.286c.007.526.431.95.957.957h2.228zM53.328 35.927a.957.957 0 0 0 .171-.329l1.157-2.2 1.172.643-.129 5.114-2.314 1.058a.957.957 0 0 0-.557.742l-.3 2.029h-2.7l3.5-7.057zm-.415-8.386a14.071 14.071 0 0 0 5.715-3.857l-.257 8.571-3.872-1.128-1.114-.5-.472-3.086zm-.971 6.829h-7.5l-.886-1.772.6-.243a.971.971 0 0 0 .6-.742l.586-3.558c1.885.39 3.83.39 5.714 0l.515 3.415a.957.957 0 0 0 .557.743l.743.328-.929 1.829zm-.971 1.928l-2.858 5.586-2.857-5.586h5.715zm-1.829 8.686h4.157a.971.971 0 0 0 .943-.829l.414-2.4 2.386-1.085a.957.957 0 0 0 .557-.857l.157-5.715.629.186-.186 6.214a.957.957 0 0 0 0 .143c.008.531.44.957.972.957h4.485a11.029 11.029 0 0 0-3.828 8.729v13.571H49.156l-.014-18.914zm12.857-5.257c2.172-1.557 4.586-3.657 4.586-5.272v-1.2a13.986 13.986 0 0 0 5.057 2.6v3.886l-9.643-.014zm4.657-9.114v-6.086c8.115 0 14.972-2.343 18.157-5.786v11.243A11.986 11.986 0 0 1 77 34.27h-3.071a12.071 12.071 0 0 1-7.272-3.657zm3.1 11.5h2.857a.971.971 0 0 0 .972-.972v-4.914h.157a14.143 14.143 0 0 0 3.343 0h.457v4.928c.008.531.44.958.971.958H81.1v3.214H69.671l.085-3.214zm9.772-2.415v-3.957a13.843 13.843 0 0 0 5.285-2.986v1.672c0 .514 0 2.086 4.186 5.271h-9.471zm10.643 2.343l-1.229-.4h.971l.258.4zm-7.143 0h.228a40.129 40.129 0 0 1 8.886 2.743 14.071 14.071 0 0 0 6.1 3.9v2.857l-11.586-3.086a6.229 6.229 0 0 0-3.614-2.957l-.014-3.457zm4.785 12.857l-.457-4.285 6.886 1.842h-.443a8.571 8.571 0 0 0-5.928 2.5l-.058-.057zm25.043-25.828a12.114 12.114 0 1 1-22.485 6.257v-.5h8.814a6.786 6.786 0 0 0 5.571-2.957v2.028c0 .531.426.964.957.972 4.058-.086 6.229-3.286 7.143-5.8zm-10.343-5.815a12.071 12.071 0 0 1 8.872 3.9c0 .215-.972 4.843-4.629 5.643V27.37a.971.971 0 0 0-1.914-.172s-1.114 5.715-5.586 5.715h-8.571a12.143 12.143 0 0 1 11.828-9.658zm-41.871-2.471a13.957 13.957 0 0 0 1.586-6.071.957.957 0 0 0 0-.1 15.1 15.1 0 0 1 28.571 6.771v6a.957.957 0 0 0 0 .171 13.8 13.8 0 0 0-2.3 9.3c-1.743-1.6-1.814-2.314-1.814-2.414V14.298a.971.971 0 1 0-1.929 0c0 4.5-8.357 8.3-18.243 8.3a.957.957 0 0 0-.614.229.957.957 0 0 0-.271 0 .971.971 0 0 0-.972.971v7.457h-.071l.071.086v3.086c0 .657-2.057 2.528-4.6 4.286l.515-17.329c.057-.214.071-.343.071-.6zM48.199 2.213A12.129 12.129 0 0 1 60.271 13.64a5.586 5.586 0 0 1-4.572-5.486.971.971 0 0 0-.971-.971H41.656a.971.971 0 0 0-.957.971 5.586 5.586 0 0 1-4.614 5.386A12.129 12.129 0 0 1 48.199 2.17v.043zM36.085 15.498a7.514 7.514 0 0 0 6.414-6.457h11.286a7.514 7.514 0 0 0 5.928 6.372 16.843 16.843 0 0 0-1.028 4.828 12.1 12.1 0 0 1-22.6-4.743zm5.714 17.9l4.814 9.629h-2.671l-.329-2.986a.971.971 0 0 0-.742-.828l-2.115-.5-.157-4.615 1.2-.7zm-5.443 2.072l2.372-.957.214 4.942a.971.971 0 0 0 .743.915l2.171.514.343 3.157c.057.48.459.846.943.857h4.157v19H36.356V35.47zM3.742 61.04l.457-26.643c0-8.343 6.764-15.107 15.107-15.107 8.344 0 15.107 6.764 15.107 15.107v26.557c-2.014-5.857-4.1-12.285-4.1-13.442V27.37a.971.971 0 0 0-.971-.972h-.329a.957.957 0 0 0-1.128.772c0 .214-.972 4.843-4.629 5.643V27.37a.971.971 0 0 0-1.914-.172s-1.114 5.715-5.586 5.715H9.228a.971.971 0 0 0-.972.957.957.957 0 0 0 0 .285v13.258c.057 1.085-2.171 7.557-4.514 13.628zm29.886 3.429c-.143 1.9-.257 4.943-.343 8.2l-2.3-14.772a6.343 6.343 0 0 0-.614-1.871l.414.214c1.014 2.986 2.071 6.1 2.843 8.286v-.057zM21.642 34.598c.18.175.42.273.671.272A7.229 7.229 0 0 0 28.4 31.04v11.957a12.114 12.114 0 0 1-18.157.643v-8.757h5.529a6.8 6.8 0 0 0 5.571-2.957v1.971a.957.957 0 0 0 .3.7zm-6.843 14.157v3.815h-2.3a.957.957 0 0 0-.486.128 6.243 6.243 0 0 0-2.1.857c-.482.03-.96.107-1.428.229a34.557 34.557 0 0 0 1.8-6.271v-1.2a14 14 0 0 0 4.514 2.442zm.729 5.715h.228a.971.971 0 0 0 .972-.957v-4.286a14.286 14.286 0 0 0 4.6 0v4.286c.007.53.44.957.971.957h2.229a5.571 5.571 0 0 1-10.986 0h1.986zm7.7-1.9v-3.8a13.857 13.857 0 0 0 5.128-2.857v1.671c.36 2.152.92 4.266 1.672 6.314a7.571 7.571 0 0 0-1.886-.285 6.243 6.243 0 0 0-2.057-.915.957.957 0 0 0-.486-.128h-2.371zm-16.1 4.643a6.443 6.443 0 0 0-.157.685L4.542 73.613c-.01-.181-.01-.362 0-.543v-8.8c.8-1.929 1.771-4.5 2.7-7.072l-.114.015zm6.1 48.414h-.7a1.714 1.714 0 0 1-1.7-1.529h4.085a1.714 1.714 0 0 1-1.685 1.529zm1.714-3.457h-4.171v-3.343h.5v.086a.971.971 0 0 0 .971.971h2.657l.043 2.286zm10.7 3.457h-.7a1.714 1.714 0 0 1-1.714-1.529h4.085a1.714 1.714 0 0 1-1.714 1.529h.043zm1.714-3.457h-4.128v-2.286h3.257a.957.957 0 0 0 .871-.557v2.843zm.086-5.272V82.613a.964.964 0 1 0-1.929 0v15.342H13.228V82.598a.964.964 0 0 0-1.929 0v14.286H3l5.943-38.7a4.286 4.286 0 0 1 2.657-3.357 7.5 7.5 0 0 0 14.772 0 4.286 4.286 0 0 1 2.714 3.357l6 38.714h-7.643zm12.857 8.715h-.7a1.714 1.714 0 0 1-1.7-1.529h4.086a1.714 1.714 0 0 1-1.8 1.543l.114-.014zm1.714-3.458h-4.242v-2.114h4.128l.114 2.114zm15 3.458h-.7a1.714 1.714 0 0 1-1.7-1.529H58.7a1.714 1.714 0 0 1-1.8 1.543l.114-.014zm1.715-3.458h-4.243v-2.114h4.128l.115 2.114zm2.6-10.914a65.086 65.086 0 0 1-.843 6.857h-7.629L49.142 76.37a.957.957 0 0 0-1.9 0l-3.714 21.728h-6.386a.957.957 0 0 0 0-.4L34.985 83.77v-.072c0-4.785.186-11.614.386-16.143h.157a.957.957 0 0 0 .8-.942v-.715h23.514a10.186 10.186 0 0 0 1.857 5.015l-.743 19.657a.971.971 0 0 0 .272.685l.1-.014zm.671-25.543v.643a9.729 9.729 0 0 1-.157-1.743V50.313c0-4.543 2.643-8.243 5.9-8.243h.229v3.471a6.271 6.271 0 0 0-4.286 5.086l-1.686 15.071zm8.286 39.9h-.7a1.714 1.714 0 0 1-1.7-1.528h3.914a1.714 1.714 0 0 1-1.628 1.557l.114-.029zm1.714-3.457h-4.243V91.555h4.129l.114 10.586zm9.543 3.457h-.7a1.714 1.714 0 0 1-1.7-1.528h4.086c-.083.913-.87 1.599-1.786 1.557l.1-.029zm1.714-3.457h-4.228V91.555h4.128l.1 10.586zM62.928 89.613l.885-23.743 1.6-14.972a4.286 4.286 0 0 1 4.286-3.685h11.429a4.286 4.286 0 0 1 4.285 3.642l.672 6.343a8.571 8.571 0 0 0-.972 3.943v1.814c.008.526.432.95.958.958v9.128a6.614 6.614 0 0 0 1.757 4.486 71.614 71.614 0 0 0-.529 8.7c0 1.143.024 2.276.072 3.4l-24.443-.014zM88.099 73.04v-9.143h1.5c-.343 1.972-1.057 6.072-1.428 9.186-.072.014-.072-.014-.072-.043zm6.414 32.572h-.7a1.714 1.714 0 0 1-1.7-1.529H96.2a1.714 1.714 0 0 1-1.686 1.543v-.014zm1.715-3.458h-4.129v-2.114h4.129v2.114zm15 3.458h-.7a1.714 1.714 0 0 1-1.7-1.529h4.085a1.714 1.714 0 0 1-1.685 1.543v-.014zm1.714-3.458h-4.129v-2.114h4.129v2.114zm1.714-4.042h-7.528l-3.672-15.258a.971.971 0 0 0-1.871 0l-3.672 15.258h-7.542a67.514 67.514 0 0 1-1.015-11.872c-.003-3 .188-5.996.572-8.971h25.228c.384 2.975.575 5.971.572 8.971a67.471 67.471 0 0 1-1.072 11.872zm2.286-25.072v.186c-.443-3.114-1.157-7.3-1.429-9.286h1.429v9.1zm.957-11.028h-3.614a.971.971 0 0 0-.943 1.128c0 .086 1.429 8.414 1.929 12.186h-25.5c.414-3.772 1.928-12.1 1.942-12.186a.971.971 0 0 0-.942-1.143h-3.643v-.857a6.671 6.671 0 0 1 6.671-6.671h1.286a7.5 7.5 0 0 0 14.871 0h1.286a6.671 6.671 0 0 1 6.671 6.671l-.014.872z"/>
        <path fill="#000" fill-rule="nonzero" d="M98.942 37.641a1.129 1.129 0 1 0 0 2.257 1.129 1.129 0 0 0 0-2.257zM106.085 37.641a1.129 1.129 0 1 0 0 2.257 1.129 1.129 0 0 0 0-2.257z"/>
    </g>
</svg>
