<svg xmlns="http://www.w3.org/2000/svg" width="136" height="129" viewBox="0 0 136 129">
    <g fill="none" fill-rule="evenodd">
        <path d="M.62-2.777h135v135H.62z"/>
        <g fill-rule="nonzero">
            <path fill="#A6DBE2" d="M4.249 40.555a.835.835 0 0 0 .847-.846V25.312a.835.835 0 0 0-.847-.847c-.53 0-.847.317-.847.847v14.397c0 .529.424.846.847.846zM4.249 49.977a.835.835 0 0 0 .847-.847v-4.658a.835.835 0 0 0-.847-.847c-.53 0-.847.318-.847.847v4.658c0 .53.424.847.847.847zM128.846 83.64a.835.835 0 0 0-.847.847v14.397c0 .423.317.847.847.847a.835.835 0 0 0 .846-.847V84.487c0-.423-.423-.847-.846-.847zM128.846 102.8a.835.835 0 0 0-.847.848v4.657c0 .424.317.847.847.847a.835.835 0 0 0 .846-.847v-4.657c0-.424-.423-.847-.846-.847z"/>
            <path fill="#EE8748" d="M32.09 42.355l-1.694-1.694a.83.83 0 0 0-1.164 0 .83.83 0 0 0 0 1.165l1.694 1.694a.809.809 0 0 0 .529.211.809.809 0 0 0 .53-.211c.423-.318.423-.847.105-1.165zM36.007 46.272a.83.83 0 0 0-1.165 0 .83.83 0 0 0 0 1.164l1.694 1.694a.809.809 0 0 0 .53.212.809.809 0 0 0 .529-.212.83.83 0 0 0 0-1.164l-1.588-1.694zM30.926 46.272l-1.694 1.694a.83.83 0 0 0 0 1.164.809.809 0 0 0 .53.212.809.809 0 0 0 .528-.212l1.694-1.694a.83.83 0 0 0 0-1.164c-.212-.318-.74-.318-1.058 0zM37.7 40.661a.83.83 0 0 0-1.164 0l-1.694 1.694a.83.83 0 0 0 0 1.165.809.809 0 0 0 .53.211.809.809 0 0 0 .529-.211l1.694-1.694c.423-.424.423-.847.106-1.165zM69.353 10.703a.809.809 0 0 0 .529.212.809.809 0 0 0 .53-.212.83.83 0 0 0 0-1.164l-1.695-1.694a.83.83 0 0 0-1.164 0 .83.83 0 0 0 0 1.164l1.8 1.694zM74.963 16.42a.809.809 0 0 0 .53.211.809.809 0 0 0 .529-.211.83.83 0 0 0 0-1.165l-1.694-1.694a.83.83 0 0 0-1.164 0 .83.83 0 0 0 0 1.165l1.8 1.694zM68.188 16.631a.809.809 0 0 0 .53-.211l1.693-1.694a.83.83 0 0 0 0-1.165.83.83 0 0 0-1.164 0l-1.694 1.694a.83.83 0 0 0 0 1.165c.212.105.423.211.635.211zM73.799 10.915a.809.809 0 0 0 .529-.212l1.694-1.694a.83.83 0 0 0 0-1.164.83.83 0 0 0-1.165 0l-1.693 1.694a.83.83 0 0 0 0 1.164c.211.212.423.212.635.212zM120.27 119.103a.83.83 0 0 0-1.164 0 .83.83 0 0 0 0 1.165l1.694 1.693a.809.809 0 0 0 .53.212.809.809 0 0 0 .529-.212.83.83 0 0 0 0-1.164l-1.588-1.694zM125.881 124.714a.83.83 0 0 0-1.164 0 .83.83 0 0 0 0 1.164l1.694 1.694a.809.809 0 0 0 .53.212.809.809 0 0 0 .528-.212.83.83 0 0 0 0-1.165l-1.588-1.693zM120.906 124.714l-1.694 1.693a.83.83 0 0 0 0 1.165.809.809 0 0 0 .53.212.809.809 0 0 0 .529-.212l1.694-1.694a.83.83 0 0 0 0-1.164c-.212-.318-.741-.318-1.059 0zM126.517 119.103l-1.694 1.694a.83.83 0 0 0 0 1.164.809.809 0 0 0 .53.212.809.809 0 0 0 .528-.212l1.694-1.693a.83.83 0 0 0 0-1.165c-.211-.317-.74-.317-1.058 0zM123.447 34.204c2.329 0 4.128-1.906 4.128-4.129s-1.905-4.128-4.128-4.128c-2.33 0-4.129 1.905-4.129 4.128s1.8 4.129 4.129 4.129zm0-6.67c1.376 0 2.54 1.165 2.54 2.541 0 1.377-1.164 2.541-2.54 2.541-1.376 0-2.54-1.164-2.54-2.54-.107-1.483 1.058-2.541 2.54-2.541zM7.213 91.05c2.329 0 4.129-1.905 4.129-4.128s-1.8-4.129-4.129-4.129c-2.329 0-4.128 1.906-4.128 4.129s1.8 4.128 4.128 4.128zm0-6.669c1.376 0 2.54 1.165 2.54 2.54 0 1.377-1.164 2.542-2.54 2.542-1.376 0-2.54-1.165-2.54-2.541s1.058-2.54 2.54-2.54z"/>
            <path fill="#A6DBE2" d="M108.52 7.527h15.562a.835.835 0 0 0 .847-.847c0-.529-.318-.846-.847-.846H108.52a.835.835 0 0 0-.847.846c0 .53.423.847.847.847zM129.269 7.527h5.081a.835.835 0 0 0 .847-.847c0-.529-.317-.846-.847-.846h-5.081a.835.835 0 0 0-.847.846c0 .53.424.847.847.847zM134.244 11.338h-10.903a.835.835 0 0 0-.847.847c0 .53.318.847.847.847h10.903a.835.835 0 0 0 .847-.847c0-.53-.317-.847-.847-.847zM118.683 11.338h-3.493a.835.835 0 0 0-.847.847c0 .53.317.847.847.847h3.493a.835.835 0 0 0 .847-.847c0-.53-.318-.847-.847-.847zM27.22 112.222H11.66a.835.835 0 0 0-.848.847c0 .424.318.847.847.847h15.562a.835.835 0 0 0 .846-.847c0-.423-.423-.847-.846-.847zM6.472 112.222H1.497a.835.835 0 0 0-.847.847c0 .424.317.847.847.847h4.975a.835.835 0 0 0 .847-.847c0-.423-.423-.847-.847-.847zM1.497 108.517H12.4a.835.835 0 0 0 .847-.847c0-.529-.317-.847-.847-.847H1.497a.835.835 0 0 0-.847.847c0 .53.317.847.847.847zM20.551 108.517a.835.835 0 0 0 .847-.847c0-.529-.317-.847-.847-.847h-3.493a.835.835 0 0 0-.847.847c0 .53.318.847.847.847h3.493z"/>
            <path fill="#A6DBE2" stroke="#A6DBE2" d="M35.69 26.476c-.848-.74-1.377-1.8-1.377-2.858a.835.835 0 0 0-.847-.847.835.835 0 0 0-.847.847c0 1.482.636 2.964 1.906 4.023 1.058.847 2.329 1.376 3.705 1.588v2.752c0 .423.317.847.847.847a.835.835 0 0 0 .847-.847v-2.752a6.164 6.164 0 0 0 3.705-1.588 5.214 5.214 0 0 0 1.905-4.023 5.214 5.214 0 0 0-1.905-4.023c-1.059-.847-2.33-1.376-3.705-1.588V9.962c.952.106 1.905.53 2.646 1.165.847.74 1.376 1.8 1.376 2.858 0 .423.318.847.847.847a.835.835 0 0 0 .847-.847 5.214 5.214 0 0 0-1.905-4.023c-1.059-.847-2.33-1.376-3.705-1.588V5.728a.835.835 0 0 0-.847-.847.835.835 0 0 0-.847.847V8.48a6.164 6.164 0 0 0-3.705 1.588 5.214 5.214 0 0 0-1.906 4.023c0 1.482.635 2.964 1.906 4.022 1.058.847 2.329 1.376 3.705 1.588v8.046c-1.059-.318-2.012-.636-2.647-1.27zm6.774-5.61c.847.74 1.376 1.8 1.376 2.858s-.529 2.011-1.376 2.858c-.74.635-1.588 1.059-2.646 1.165v-7.94c1.058 0 2.011.423 2.646 1.059zm-6.775-4.129c-.847-.74-1.376-1.8-1.376-2.858 0-1.059.53-2.011 1.376-2.858.741-.635 1.588-1.059 2.647-1.165v7.94c-1.059 0-2.012-.424-2.647-1.059z"/>
            <path fill="#1DAAA6" stroke="#1DAAA6" d="M39.077 36.427c9.739 0 17.678-7.94 17.678-17.679 0-9.739-7.94-17.678-17.678-17.678-9.74 0-17.679 7.94-17.679 17.678 0 9.74 7.94 17.679 17.679 17.679zm0-33.663c8.892 0 16.09 7.198 16.09 16.09 0 8.893-7.198 16.09-16.09 16.09s-16.09-7.197-16.09-16.09c0-8.892 7.198-16.09 16.09-16.09z"/>
            <path fill="#1DAAA6" stroke="#1DAAA6" stroke-width=".5" d="M122.07 53.47c-1.27-1.164-3.07-1.482-5.187-1.164-2.858.423-4.657 3.282-4.657 7.304v18.631c0 .424.317.847.846.847a.835.835 0 0 0 .847-.847V59.504c0-3.175 1.27-5.399 3.282-5.716 1.588-.212 2.858 0 3.81.847 1.165.953 1.695 2.646 1.695 4.87v29.852c0 2.329-.953 4.446-2.54 6.14l-13.34 13.338c-1.164 1.164-1.799 2.752-1.799 4.446v1.694H80.68v-9.951c0-2.647 1.058-5.187 2.964-6.987l17.784-17.255c1.8-1.8 4.764-1.694 6.563.106.847.847 1.376 2.011 1.27 3.282 0 1.27-.529 2.434-1.376 3.281l-8.468 8.257a.83.83 0 0 0 0 1.165.83.83 0 0 0 1.164 0l8.469-8.257c1.164-1.165 1.905-2.753 1.905-4.34 0-1.694-.635-3.282-1.8-4.447-1.164-1.164-2.752-1.905-4.34-1.905-1.693 0-3.281.635-4.446 1.8L82.585 96.978c-2.223 2.117-3.388 5.08-3.388 8.15v10.057c-2.328.212-4.022 2.223-4.022 4.552v8.046c0 .423.317.846.847.846a.835.835 0 0 0 .847-.846v-8.046a2.959 2.959 0 0 1 2.964-2.964h26.676a2.959 2.959 0 0 1 2.964 2.964v8.046c0 .423.318.846.847.846a.835.835 0 0 0 .847-.846v-8.046c0-2.434-1.8-4.34-4.128-4.552v-1.693c0-1.27.529-2.435 1.376-3.282l13.338-13.338c1.905-1.906 2.964-4.552 2.964-7.305V59.504c-.318-2.646-1.059-4.763-2.646-6.034zM61.413 115.08v-10.056c0-3.07-1.27-6.034-3.387-8.151L40.24 79.723c-1.164-1.164-2.752-1.8-4.446-1.8s-3.176.742-4.34 1.906c-1.165 1.165-1.8 2.753-1.8 4.446 0 1.694.741 3.176 1.906 4.34l8.469 8.258a.83.83 0 0 0 1.164 0 .83.83 0 0 0 0-1.165l-8.469-8.257a4.644 4.644 0 0 1-1.376-3.281c0-1.27.423-2.435 1.27-3.282a4.644 4.644 0 0 1 3.282-1.376c1.27 0 2.435.423 3.282 1.27l17.784 17.255c1.905 1.8 2.964 4.34 2.964 6.987v9.95H35.583v-1.693c0-1.694-.635-3.282-1.8-4.446l-13.55-13.338a8.735 8.735 0 0 1-2.54-6.14V59.504c0-2.223.635-3.916 1.694-4.87.953-.846 2.329-1.058 3.81-.846 2.012.317 3.283 2.54 3.283 5.716v18.632c0 .423.317.846.846.846a.835.835 0 0 0 .847-.846V59.504c0-3.916-1.8-6.88-4.658-7.304-2.01-.318-3.81.106-5.187 1.164-1.482 1.27-2.329 3.388-2.329 6.14v29.853c0 2.752 1.059 5.293 2.965 7.304l13.338 13.338a4.644 4.644 0 0 1 1.376 3.282v1.694c-2.329.211-4.129 2.117-4.129 4.552v8.045c0 .423.318.847.847.847a.835.835 0 0 0 .847-.847v-8.045a2.959 2.959 0 0 1 2.964-2.964h26.677a2.959 2.959 0 0 1 2.964 2.964v8.045c0 .423.317.847.847.847a.835.835 0 0 0 .847-.847v-8.045c-.106-2.33-1.906-4.235-4.129-4.447z"/>
            <path fill="#A6DBE2" stroke="#A6DBE2" d="M72.952 51.141c1.058 1.165 2.54 1.27 4.446.106l2.964 3.176c-.953.635-1.906.53-2.858-.423l-1.165 1.058c1.482 1.376 3.07 1.482 4.764.212l.847.847.635-.53-.953-.74c.741-.742 1.059-1.588 1.059-2.435s-.318-1.694-.953-2.33c-.635-.634-1.27-.952-1.905-1.058-.636-.106-1.588.212-2.753.953l-2.646-2.858c.74-.53 1.482-.424 2.223.211l1.164-1.058c-1.27-1.165-2.646-1.165-4.128 0l-.847-.847-.53.318.848.846c-.636.741-.953 1.483-1.06 2.224-.105.952.213 1.693.848 2.328zm6.669-.74c.423 0 .74.317 1.059.635.846.952.952 1.905.211 2.858l-2.858-3.07c.635-.318 1.164-.424 1.588-.424zm-5.716-2.859l2.54 2.753c-.423.211-.847.317-1.27.423-.424 0-.847-.212-1.165-.635-.846-.847-.846-1.694-.105-2.54z"/>
            <path fill="#A6DBE2" d="M64.589 58.763c-1.059-.106-2.011.318-2.752.953-1.588 1.376-1.694 3.811-.212 5.399.74.847 1.8 1.27 2.858 1.27.953 0 1.8-.317 2.54-.953.742-.74 1.165-1.587 1.271-2.646 0-1.059-.318-2.011-.953-2.752-.847-.741-1.8-1.165-2.752-1.27zm1.27 5.505c-.953.847-2.329.741-3.176-.106-.846-.953-.74-2.329.106-3.176.424-.423.953-.529 1.482-.529.635 0 1.165.212 1.694.741.424.424.635 1.059.53 1.588.105.53-.212 1.059-.636 1.482zM90.101 42.779h.212c.952 0 1.905-.318 2.54-.953 1.588-1.376 1.694-3.811.212-5.399-.741-.741-1.588-1.164-2.646-1.27-1.059-.106-2.012.317-2.753.952-.74.741-1.164 1.588-1.27 2.647 0 1.058.318 2.011.953 2.752.847.741 1.8 1.165 2.752 1.27zm-1.27-5.505c.423-.424.952-.53 1.482-.53.635 0 1.164.212 1.693.742.847.952.741 2.328-.105 3.175-.424.424-1.059.636-1.588.53-.635 0-1.165-.318-1.588-.741-.424-.424-.635-1.059-.635-1.588 0-.635.317-1.165.74-1.588z"/>
            <path fill="#1DAAA6" stroke="#1DAAA6" d="M39.183 60.034c0 .211.106.423.211.529L64.06 87.557c.105.212.423.212.635.212a.809.809 0 0 0 .529-.212l50.072-45.625a.809.809 0 0 0 .211-.53.809.809 0 0 0-.211-.529L90.63 13.88a.83.83 0 0 0-1.164 0L39.5 59.504a.582.582 0 0 0-.317.53zm50.812-44.461l23.607 25.83-48.907 44.566-23.607-25.83 48.907-44.566z"/>
            <path fill="#1DAAA6" stroke="#1DAAA6" d="M67.87 74.96c.106.212.424.212.636.212a.809.809 0 0 0 .529-.212l33.346-30.382a.809.809 0 0 0 .211-.53.809.809 0 0 0-.211-.528c-1.059-1.165-.953-2.965.211-4.023a.83.83 0 0 0 0-1.165L92.006 26.794a.83.83 0 0 0-1.164 0c-1.059.953-2.646.953-3.81 0 0-.106-.107-.106-.213-.212a.83.83 0 0 0-1.164 0l-33.24 30.382a.809.809 0 0 0-.212.529c0 .212.106.423.212.53.106.105.212.317.318.423v.106c.529.952.423 2.117-.106 2.964-.106.106-.212.317-.424.423a.83.83 0 0 0 0 1.165L62.79 74.642a.809.809 0 0 0 .53.212.809.809 0 0 0 .529-.212c1.164-.953 2.964-.847 4.023.318zm-4.446-1.8l-9.633-10.48c.53-.74.847-1.588.847-2.435 0-.952-.212-1.8-.635-2.54l32.287-29.43c1.482 1.165 3.493 1.165 4.975.213l9.634 10.48c-1.059 1.482-1.165 3.493-.212 4.975L68.4 73.372c-.741-.635-1.694-.847-2.647-.847-.847-.106-1.588.106-2.329.635z"/>
        </g>
    </g>
</svg>
