<svg xmlns="http://www.w3.org/2000/svg" width="120" height="133" viewBox="0 0 120 133">
    <g fill="none" fill-rule="evenodd">
        <path d="M-8.13-.803h135v135h-135z"/>
        <g fill-rule="nonzero">
            <path fill="#1DAAA6" d="M27.513 33.534h-4.665V29.6a14.85 14.85 0 1 0-9.027 0v3.918h-4.68a9.123 9.123 0 0 0-9.107 9.107v1.872a1.063 1.063 0 0 0 1.063 1.079v9.52A6.949 6.949 0 0 0 2.89 59.76a75.487 75.487 0 0 0-.571 9.233c-.013 4.605.412 9.2 1.269 13.724.092.506.533.873 1.047.873h.619v3.87a4.046 4.046 0 0 0 4.045 4.046h.429a4.046 4.046 0 0 0 4.045-4.045v-3.824h.492c.498 0 .93-.341 1.047-.825l3.015-12.502 3.014 12.518c.117.484.55.824 1.047.825h.492v3.871a4.046 4.046 0 0 0 4.046 4.046h.428a4.046 4.046 0 0 0 4.046-4.046v-3.887h.619c.514 0 .955-.367 1.047-.872a72.663 72.663 0 0 0 1.269-13.724 75.52 75.52 0 0 0-.571-9.234 6.949 6.949 0 0 0 1.793-4.664v-9.52a1.079 1.079 0 0 0 1.063-1.078V42.64a9.123 9.123 0 0 0-9.107-9.107zM18.327 2.755a12.692 12.692 0 0 1 9.63 4.443c-.301 1.158-1.46 4.76-4.76 5.52V7.04a1.079 1.079 0 0 0-2.125-.19c0 .253-1.19 6.013-5.839 6.013H5.888A12.692 12.692 0 0 1 18.327 2.755zM5.635 15.448v-.46h9.677a7.171 7.171 0 0 0 5.823-3.015v1.936c-.001.286.113.56.317.761.21.198.49.306.778.302a8.234 8.234 0 0 0 7.203-5.585 12.692 12.692 0 1 1-23.798 6.077v-.016zM14.9 35.66a1.079 1.079 0 0 0 1.063-1.063v-4.49c1.574.28 3.185.28 4.76 0v4.49c.008.584.479 1.055 1.062 1.063h2.253a5.807 5.807 0 0 1-11.423 0H14.9zM2.208 42.625a6.98 6.98 0 0 1 6.964-6.965h1.222a7.933 7.933 0 0 0 15.77 0h1.301a6.98 6.98 0 0 1 6.965 6.965v.84h-3.712a1.063 1.063 0 0 0-1.063 1.207l1.586 12.565H5.381l1.586-12.565a1.063 1.063 0 0 0-1.063-1.206H2.176l.032-.84zm2.538 2.983l-1.317 9.995v-9.964l1.317-.031zM9.76 89.396H9.33a1.904 1.904 0 0 1-1.856-1.491h4.14a1.904 1.904 0 0 1-1.871 1.507l.016-.016zm1.887-3.649H7.411v-2.11h4.236v2.11zm15.707 3.633h-.428a1.904 1.904 0 0 1-1.856-1.491h4.14a1.904 1.904 0 0 1-1.872 1.523l.016-.032zm1.888-3.633h-4.236v-2.11h4.236v2.11zm1.872-4.268h-7.932l-3.856-16.024a1.079 1.079 0 0 0-2.078 0L13.393 81.48H5.46a71.077 71.077 0 0 1-1.063-12.454c-.002-3.226.21-6.448.635-9.646h26.51c.425 3.198.637 6.42.635 9.646a71.077 71.077 0 0 1-1.063 12.47v-.016zm2.142-26.352c.008.159.008.317 0 .476l-1.285-10.011h1.317l-.032 9.535z"/>
            <path fill="#126786" d="M14.503 17.7a1.34 1.34 0 1 0 0 2.682 1.34 1.34 0 0 0 0-2.681zM22.15 20.382a1.34 1.34 0 1 0 0-2.681 1.34 1.34 0 0 0 0 2.68z"/>
            <path fill="#A6DBE2" d="M22.912 56.27a1.07 1.07 0 1 0 0-2.143c-7.01 0-12.692-5.682-12.692-12.692a1.079 1.079 0 1 0-2.142 0c.017 8.186 6.648 14.817 14.834 14.834z"/>
        </g>
        <g transform="translate(66.224 101.559)">
            <path stroke="#1DAAA6" stroke-width="2" d="M24.175.073L49.7 7.115a1 1 0 0 1 0 1.928l-25.525 7.041a1 1 0 0 1-.532 0L-1.882 9.043a1 1 0 0 1 0-1.928L23.643.073a1 1 0 0 1 .532 0z"/>
            <path stroke="#1DAAA6" stroke-width="2" d="M23.909 16.21c.103 0 .208-.013.309-.04l18.255-5.036v16.512c-.91.881-7.191 2.488-18.564 2.488-11.373 0-17.655-1.607-18.564-2.488V11.133L23.6 16.17c.101.028.206.042.309.042z"/>
            <path stroke="#A6DBE2" stroke-linecap="round" stroke-linejoin="round" stroke-width="3" d="M24.02 7.819h27.377v13.11"/>
            <circle cx="23.909" cy="8.079" r="1.928" fill="#126786"/>
        </g>
        <g fill="#EE8748" fill-rule="nonzero">
            <path d="M6.341 128.246c1.206.724 2.412 1.206 3.859 1.688l.964-3.376c-.964-.241-1.929-.723-2.653-1.206l-2.17 2.894zM16.47 103.166H12.852l.241 3.617H16.47v-3.617zM8.994 107.748l-1.447-3.135c-1.206.723-2.412 1.447-3.376 2.411l2.411 2.653c.724-.965 1.688-1.447 2.412-1.93zM.07 115.465l3.618.24c0-.964.241-1.928.724-2.893l-3.376-1.447c-.483 1.206-.965 2.653-.965 4.1zM.553 120.77c.483 1.206.965 2.653 1.688 3.618l2.894-1.93c-.482-.723-.964-1.688-1.447-2.652l-3.135.964zM104.493 66.992l-3.136-1.447c-.482.965-.964 1.93-1.688 2.653l2.894 2.17c.724-.965 1.447-2.17 1.93-3.376zM98.705 45.77c-1.206-.724-2.17-1.447-3.618-1.93l-1.205 3.377 2.893 1.447 1.93-2.894zM98.464 73.985l-1.93-2.893-2.894 1.447 1.206 3.376c1.447-.483 2.653-1.206 3.618-1.93zM104.493 53.005c-.483-1.206-1.206-2.412-1.93-3.377l-2.894 1.93c.724.723 1.206 1.688 1.688 2.652l3.136-1.205zM52.885 42.876h3.617v3.617h-3.617zM102.563 59.998v1.688l3.618.483c0-.724.24-1.447.24-2.17v-1.93l-3.617.482c-.482.241-.24.965-.24 1.447zM77.965 42.876h3.617v3.617h-3.617zM77.724 73.503h3.617v3.617h-3.617zM89.782 76.88l-.241-3.618H85.923v3.617h2.894c.483.242.724.242.965 0zM89.782 46.493l.241-3.617h-3.617v3.617H89.782zM31.904 126.8h3.617v3.616h-3.617zM15.264 126.8h3.617v3.616h-3.617zM48.785 95.69l3.376.964c.482-1.205.482-2.652.482-3.858v-.241l-3.617.24c.241.965 0 2.171-.241 2.895zM49.267 87.731l3.618.483c.24-.965.482-2.17.723-3.135l-3.376-1.206c-.482 1.206-.724 2.653-.965 3.858zM60.602 74.227l.964 3.376c.965-.241 1.93-.482 3.135-.482l-.24-3.618c-1.207 0-2.412.241-3.86.724zM56.984 126.8H60.6v3.616h-3.617zM69.525 42.876h3.617v3.617h-3.617zM61.325 42.876h3.617v3.617h-3.617zM69.525 73.503h3.617v3.617h-3.617zM65.184 126.8H68.8v3.616h-3.617zM56.02 76.638c-.965.724-2.17 1.688-2.894 2.653l2.653 2.17 2.17-2.17-1.93-2.653zM23.463 126.8h3.617v3.616h-3.617zM36.245 42.876h3.617v3.617h-3.617zM29.492 103.165h3.617v3.617h-3.617zM21.052 103.165h3.617v3.617h-3.617zM41.068 102.924c-.724.242-1.447.242-1.93.242h-1.205v3.617h1.206c.964 0 1.929 0 2.652-.241l-.723-3.618zM44.685 42.876h3.617v3.617h-3.617zM47.097 99.307l-2.17 2.17 1.929 2.894c1.205-.723 2.17-1.688 2.894-2.652l-2.653-2.412zM48.544 126.8h3.617v3.616h-3.617zM40.344 126.8h3.617v3.616h-3.617z"/>
        </g>
    </g>
</svg>
