<svg xmlns="http://www.w3.org/2000/svg" width="128" height="110" viewBox="0 0 128 110">
    <g fill="none" fill-rule="evenodd">
        <path d="M-3.13-12.622h135v135h-135z"/>
        <g fill-rule="nonzero">
            <path fill="#A6DBE2" d="M95.97 33.478h-2.1v-2.1c0-.4-.3-.8-.8-.8-.4 0-.8.3-.8.8v2.1h-2.1c-.4 0-.8.3-.8.8s.3.8.8.8h2.2v2.1c0 .4.3.8.8.8.4 0 .8-.3.8-.8v-2.1h2.1c.4 0 .8-.3.8-.8s-.5-.8-.9-.8zM95.67 43.578c-.3-.3-.8-.3-1.1 0l-1.5 1.5-1.5-1.5c-.3-.3-.8-.3-1.1 0-.3.3-.3.8 0 1.1l1.5 1.5-1.5 1.5c-.3.3-.3.8 0 1.1.1.1.3.2.5.2s.4-.1.5-.2l1.5-1.5 1.5 1.5c.1.1.3.2.5.2s.4-.1.5-.2c.3-.3.3-.8 0-1.1l-1.5-1.5 1.5-1.5c.5-.3.5-.8.2-1.1zM108.87 33.478h-5.7c-.4 0-.8.3-.8.8s.3.8.8.8h5.7c.4 0 .8-.3.8-.8s-.4-.8-.8-.8zM105.47 48.378c-.1.1-.2.3-.2.5 0 .1 0 .2.1.3 0 .1.1.2.2.3.1.1.3.2.5.2s.4-.1.5-.2c.1-.1.1-.2.2-.3 0-.1.1-.2.1-.3 0-.2-.1-.4-.2-.5-.5-.3-1-.3-1.2 0zM108.87 45.378h-5.7c-.4 0-.8.3-.8.8s.3.8.8.8h5.7c.4 0 .8-.3.8-.8s-.4-.8-.8-.8zM106.47 43.878c.1-.1.2-.3.2-.5 0-.1 0-.2-.1-.3 0-.1-.1-.2-.2-.3-.3-.3-.8-.3-1.1 0-.1.1-.1.2-.2.3 0 .1-.1.2-.1.3 0 .2.1.4.2.5.1.1.3.2.5.2.5 0 .7 0 .8-.2z"/>
            <path fill="#1DAAA6" d="M86.07 54.978h27.5c1.7 0 3.1-1.4 3.1-3.1v-33.4c0-1.7-1.4-3.1-3.1-3.1h-27.5c-1.7 0-3.1 1.4-3.1 3.1v33.4c0 1.7 1.4 3.1 3.1 3.1zm-1.6-36.5c0-.9.7-1.6 1.6-1.6h27.5c.9 0 1.6.7 1.6 1.6v33.4c0 .9-.7 1.6-1.6 1.6h-27.5c-.9 0-1.6-.7-1.6-1.6v-33.4z"/>
            <path fill="#1DAAA6" d="M87.67 27.178h24.2c.4 0 .8-.3.8-.8v-6.3c0-.4-.3-.8-.8-.8h-24.2c-.4 0-.8.3-.8.8v6.3c.1.5.4.8.8.8zm23.5-1.5h-22.4v-4.8h22.4v4.8zM48.87 66.178c2.7 0 5.7-.9 8.6-3.6.3-.3.3-.8.1-1.1-.3-.3-.8-.3-1.1-.1-7.8 7-15.7.3-16 0-.3-.3-.8-.2-1.1.1-.3.3-.2.8.1 1.1 0 .1 4.1 3.6 9.4 3.6z"/>
            <path fill="#EE8748" d="M63.47 95.078l3.6 2.3c.3.2.6.2.8 0l3.2-2.1 3.2 2.1c.2.2.6.2.8 0l3.2-2.1 3.2 2.1c.1.1.3.1.4.1.2 0 .5-.1.6-.3.2-.3.1-.8-.2-1l-3.6-2.3c-.3-.2-.6-.2-.8 0l-3.2 2.1-3.2-2.1c-.3-.2-.6-.2-.8 0l-3.2 2.1-3.2-2.1c-.3-.2-.8-.1-1 .2-.3.3-.2.8.2 1z"/>
            <path fill="#A6DBE2" d="M15.07 51.178c0-.4-.3-.8-.8-.8s-.8.3-.8.8v12.1c0 .4.3.8.8.8s.8-.3.8-.8v-12.1zM14.27 66.478c-.4 0-.8.3-.8.8v3.9c0 .4.3.8.8.8s.8-.3.8-.8v-3.9c0-.5-.4-.8-.8-.8z"/>
            <path fill="#EE8748" d="M104.57 4.178c.1.1.3.2.5.2s.4-.1.5-.2c.3-.3.3-.8 0-1.1l-1.6-1.6c-.3-.3-.8-.3-1.1 0-.3.3-.3.8 0 1.1l1.7 1.6zM109.67 9.278c.1.1.3.2.5.2s.4-.1.5-.2c.3-.3.3-.8 0-1.1l-1.6-1.6c-.3-.3-.8-.3-1.1 0-.3.3-.3.8 0 1.1l1.7 1.6zM103.47 9.478c.2 0 .4-.1.5-.2l1.6-1.6c.3-.3.3-.8 0-1.1-.3-.3-.8-.3-1.1 0l-1.6 1.6c-.3.3-.3.8 0 1.1.3.1.5.2.6.2zM108.57 4.378c.2 0 .4-.1.5-.2l1.6-1.6c.3-.3.3-.8 0-1.1-.3-.3-.8-.3-1.1 0l-1.6 1.6c-.3.3-.3.8 0 1.1.2.1.4.2.6.2zM121.47 57.478c.1.1.3.2.5.2s.4-.1.5-.2c.3-.3.3-.8 0-1.1l-1.6-1.6c-.3-.3-.8-.3-1.1 0-.3.3-.3.8 0 1.1l1.7 1.6zM126.07 59.978c-.3-.3-.8-.3-1.1 0-.3.3-.3.8 0 1.1l1.6 1.6c.1.1.3.2.5.2s.4-.1.5-.2c.3-.3.3-.8 0-1.1l-1.5-1.6zM120.47 62.878c.2 0 .4-.1.5-.2l1.6-1.6c.3-.3.3-.8 0-1.1-.3-.3-.8-.3-1.1 0l-1.6 1.6c-.3.3-.3.8 0 1.1.2.1.4.2.6.2zM125.57 57.778c.2 0 .4-.1.5-.2l1.6-1.6c.3-.3.3-.8 0-1.1-.3-.3-.8-.3-1.1 0l-1.6 1.6c-.3.3-.3.8 0 1.1.2.1.4.2.6.2zM8.67 24.078c.1.1.3.2.5.2s.4-.1.5-.2c.3-.3.3-.8 0-1.1l-1.6-1.6c-.3-.3-.8-.3-1.1 0-.3.3-.3.8 0 1.1l1.7 1.6zM13.77 29.178c.1.1.3.2.5.2s.4-.1.5-.2c.3-.3.3-.8 0-1.1l-1.6-1.6c-.3-.3-.8-.3-1.1 0-.3.3-.3.8 0 1.1l1.7 1.6zM7.67 29.378c.2 0 .4-.1.5-.2l1.6-1.6c.3-.3.3-.8 0-1.1-.3-.3-.8-.3-1.1 0l-1.6 1.6c-.3.3-.3.8 0 1.1.2.1.4.2.6.2zM12.67 24.278c.2 0 .4-.1.5-.2l1.6-1.6c.3-.3.3-.8 0-1.1-.3-.3-.8-.3-1.1 0l-1.6 1.6c-.3.3-.3.8 0 1.1.3.1.4.2.6.2z"/>
            <path fill="#A6DBE2" d="M77.37 9.978c1.9 0 3.5-1.6 3.5-3.5s-1.6-3.5-3.5-3.5-3.5 1.6-3.5 3.5c.1 1.9 1.6 3.5 3.5 3.5zm0-5.5c1.1 0 2 .9 2 2s-.9 2-2 2-2-.9-2-2c.1-1.1 1-2 2-2zM99.27 79.878c-1.9 0-3.5 1.6-3.5 3.5s1.6 3.5 3.5 3.5 3.5-1.6 3.5-3.5-1.6-3.5-3.5-3.5zm0 5.5c-1.1 0-2-.9-2-2s.9-2 2-2 2 .9 2 2-.9 2-2 2zM22.57 5.378c0 .4.3.8.8.8h12.8c.4 0 .8-.3.8-.8s-.3-.8-.8-.8h-12.8c-.5 0-.8.4-.8.8zM14.97 6.078h4.2c.4 0 .8-.3.8-.8s-.3-.8-.8-.8h-4.2c-.4 0-.8.3-.8.8s.4.8.8.8zM14.97 1.678h9c.4 0 .8-.3.8-.8s-.4-.7-.9-.7h-9c-.4 0-.8.3-.8.8s.5.7.9.7zM27.77 1.678h2.9c.4 0 .8-.3.8-.8s-.3-.8-.8-.8h-2.9c-.4 0-.8.3-.8.8s.4.8.8.8zM102.97 68.178c0-.4-.3-.8-.8-.8h-12.7c-.4 0-.8.3-.8.8 0 .4.3.8.8.8h12.8c.4 0 .7-.4.7-.8zM81.07 67.478c-.4 0-.8.3-.8.8 0 .4.3.8.8.8h4.2c.4 0 .8-.3.8-.8 0-.4-.3-.8-.8-.8h-4.2zM80.27 63.778c0 .4.3.8.8.8h9c.4 0 .8-.3.8-.8 0-.4-.3-.8-.8-.8h-9c-.4.1-.8.4-.8.8zM96.77 64.578c.4 0 .8-.3.8-.8 0-.4-.3-.8-.8-.8h-2.9c-.4 0-.8.3-.8.8 0 .4.3.8.8.8h2.9z"/>
            <path fill="#1DAAA6" stroke="#1DAAA6" stroke-width=".5" d="M117.87 65.578c-.2-.2-.4-.3-.6-.3-.2 0-.5.2-.6.4-.9 1.5-1.7 2.7-2.5 4-.7 1.1-1.4 2.2-2.2 3.5-.2.4-.1.8.2 1 .1.1.3.1.4.1.3 0 .5-.1.6-.4.8-1.3 1.5-2.4 2.2-3.5.5-.8 1-1.5 1.5-2.3.5 3.2.1 6.8-1.1 10.5-.7 2-1.6 4.1-2.8 6-1.8 3-4 5.7-6.7 8.1-2 1.8-4.3 3.5-6.7 4.9-1.9 1.1-4 2.1-6.2 2.9-.4-1.3-.8-2.7-1.3-4-2.7-9.3-11.3-14.6-22.1-13.7-2.4.2-4.8.3-7.2.4h-.1c-.7-1.4-3.1-6.9-.1-14.9 3.5-3.2 6.3-7.5 8.1-12.8h.3c2.6 0 4.5-3.9 4.5-9 0-4-1.2-7.2-3-8.5.1-.1.1-.2.1-.2.2-.4.1-.8-.3-1-.1 0-.1-.1-.2-.1.3-2.6.7-5.3.8-8 .8-13.1-2.8-14.2-8.9-16.1-.5-.2-1-.3-1.6-.5-4.1-1.3-9-2-14.1-2.1-3.6 0-8.9.4-14.1 2.1-.5.2-1.1.3-1.5.5-6 1.9-9.7 3-8.9 16.1.2 2.7.5 5.4.8 8-.1 0-.1 0-.2.1-.4.2-.5.7-.3 1 0 0 .1.1.1.2-1.8 1.2-3 4.5-3 8.5 0 5.1 1.9 9 4.5 9h.3c1.7 5.1 4.4 9.4 7.8 12.6 3 7.9.6 13.7-.1 15.1h-.1c-2.3-.1-4.6-.2-6.9-.4-10.6-.9-19.2 4.4-22 13.7-1.3 4-2.5 8-3.7 12.1v.5l.1.1.1.1.1.1.1.1H120.37c.4 0 .8-.3.8-.8v-30c0-.4-.3-.8-.8-.8h-2.9c1-3.2 1.3-6.4 1-9.3 1.1 1.4 2.3 3.1 3.6 5.2.2.4.7.5 1 .2.4-.2.5-.7.2-1-2-3.2-3.9-5.6-5.4-7.4zm-55.7-20.3c0 2.9-2.3 5.2-5.2 5.2-2.9 0-5.2-2.3-5.2-5.2 0-2.9 2.3-5.2 5.2-5.2 2.8 0 5.2 2.3 5.2 5.2zm-5.2-6.7c-3.3 0-6 2.4-6.6 5.5-1-.4-2.4-.6-3.8 0-.6-3.1-3.3-5.5-6.6-5.5-2.7 0-5.1 1.7-6.1 4-3.5 0-6.2-2.8-7.4-4.4.3-1.1 1.8-7.1 3.6-9.2 1.3-1.5 6.6-.9 9.6-.1.3.1.7-.1.9-.4.2-.3.1-.7-.2-.9-2.1-1.6-1.7-3.5-1.3-4.5 5.6 5 10.5 4.6 10.7 4.6.1 0 11.8-.1 16 .4 2.9.3 4.5 7 4.9 9.9v.2c-1.3 1.6-3.9 4.4-7.4 4.4-1.2-2.3-3.6-4-6.3-4zm-17 1.5c2.9 0 5.2 2.3 5.2 5.2 0 2.9-2.3 5.2-5.2 5.2-2.9 0-5.2-2.3-5.2-5.2 0-2.9 2.3-5.2 5.2-5.2zm-6.8-26c.5-.2 1-.3 1.6-.5 4-1.3 8.7-2 13.7-2s9.7.7 13.7 2c.5.2 1.1.3 1.6.5 5.7 1.8 8.6 2.6 7.8 14.6-.1 1.6-.3 3.2-.4 4.7-.9-3-2.5-6.5-5.2-6.8-4.3-.5-15.7-.4-16.3-.4 0 0-5 .3-10.3-4.8-.2-.2-.4-.2-.6-.2-.2 0-.4.1-.5.3-.8 1.1-1.7 3.3-.5 5.5-2.8-.5-7.2-.9-8.9 1-1.2 1.3-2.2 3.9-2.9 6.1-.2-1.8-.4-3.7-.5-5.5-.8-11.9 2-12.7 7.7-14.5zm-5.8 40.3c-.1-.2-.2-.4-.4-.5-.1 0-.2-.1-.3-.1-.1 0-.2 0-.3.1-.2.1-.3.1-.5.1-1.4 0-3-3.1-3-7.5 0-3.8 1.1-6.5 2.3-7.2 1.4 1.8 4.2 4.6 8.1 4.8-.1.4-.1.8-.1 1.2 0 3.7 3 6.7 6.7 6.7 3.5 0 6.4-2.8 6.7-6.3 1.7-1 3.1-.4 3.7 0 .2 3.5 3.1 6.3 6.7 6.3 3.7 0 6.7-3 6.7-6.7 0-.4 0-.8-.1-1.2 3.8-.2 6.6-3 8.1-4.8 1.2.8 2.3 3.5 2.3 7.2 0 4.4-1.6 7.5-3 7.5-.2 0-.3 0-.5-.1s-.4-.1-.6 0c-.2.1-.3.3-.4.5-3.4 11-11.7 18.1-21 18.1-9.4.1-17.6-7.1-21.1-18.1zm8.8 15.5c3.6 2.7 7.8 4.2 12.3 4.2 4.3 0 8.5-1.4 12-4-2.4 8.5 1 14 1.1 14.2 0 .1.1.1.1.1-2.3 4.5-3.9 6.3-5.9 8.6-.1.1-.2.2-.2.3l-1.7-7.4 2.6-4.4c.1-.2.1-.5 0-.8-.1-.2-.4-.4-.7-.4h-14.7c-.3 0-.5.1-.7.4-.1.2-.1.5 0 .8l2.7 4.5-2 8.2c-1.9-2.4-4.1-5.5-6.3-9.7l.1-.1c.3-.4 3.6-6 1.3-14.5zm12.2 30.6c-.8-.4-3.2-1.8-6.1-5.1.1-.1.2-.2.2-.4l2.1-8.5h7.9l2 8.2c-3 3.3-5.3 5.2-6.1 5.8zm4.2-15.5h-8.3l-1.9-3.2h12l-1.8 3.2zm-46.5 11.9c2.7-8.6 10.6-13.4 20.7-12.7 2.2.1 4.4.3 6.5.4 7.4 14.6 14.6 17.4 14.9 17.5h.6c.1 0 .1 0 .1-.1.1-.1 3-2.1 6.9-6.7.4-.5.8-.9 1.2-1.4 2.1-2.4 3.8-4.3 6.3-9.3 2.3-.1 4.5-.2 6.8-.4 10.1-.8 18 4.1 20.7 12.7l1.5 4.8c0 .1.1.2.2.3v6H2.67c1.1-3.7 2.2-7.4 3.4-11.1zm93.2 11.1h-5.3v-6.1c1.8-.7 3.6-1.5 5.3-2.4v8.5zm1.5-9.3c1.9-1.1 3.6-2.4 5.3-3.7v13.1h-5.3v-9.4zm6.8-5.1c2-1.8 3.8-3.9 5.3-6v20.5h-5.3v-14.5zm12.1 14.4h-5.3v-22.8c1.1-1.8 2-3.7 2.7-5.6h2.6v28.4z"/>
        </g>
    </g>
</svg>
