<svg xmlns="http://www.w3.org/2000/svg" width="37" height="37" viewBox="0 0 37 37">
    <path fill="#1DAAA6" fill-rule="evenodd" d="M32.636.19H4.689A4.352 4.352 0 0 0 .33 4.538v27.967a4.353 4.353 0 0 0 4.358 4.348h27.947a4.353 4.353 0 0 0 4.358-4.348V4.538A4.352 4.352 0 0 0 32.636.19zm-5.953 5.728c0-.632.513-1.145 1.145-1.145h3.437c.633 0 1.146.513 1.146 1.145v3.438c0 .632-.513 1.145-1.146 1.145h-3.437a1.145 1.145 0 0 1-1.145-1.145V5.918zm-7.978 5.612c3.894 0 7.05 3.15 7.05 7.034 0 3.885-3.156 7.034-7.05 7.034-3.893 0-7.05-3.149-7.05-7.034 0-3.884 3.157-7.034 7.05-7.034zm14.852 20.74c0 .632-.513 1.146-1.146 1.146H4.914a1.147 1.147 0 0 1-1.146-1.146V15.084H8.35c-.597.859-.8 2.462-.8 3.48 0 6.135 5.005 11.127 11.154 11.127 6.15 0 11.154-4.992 11.154-11.127 0-1.018-.145-2.596-.885-3.48h4.583V32.27z"/>
</svg>
