<svg xmlns="http://www.w3.org/2000/svg" width="38" height="34" viewBox="0 0 38 34">
    <path fill="#1DAAA6" fill-rule="evenodd" d="M1.13 10.9h7.19v22.782H1.13V10.9zm26.834-.22c5.11 0 9.125 3.278 9.125 10.335v12.667h-8.153v-11.79c0-3.085-1.275-5.191-4.08-5.191-2.145 0-3.338 1.42-3.893 2.79-.208.493-.176 1.178-.176 1.863v12.328H12.71s.104-20.883 0-22.782h8.077v3.576c.477-1.564 3.058-3.795 7.177-3.795zM4.591.147c2.653 0 4.284 1.7 4.336 3.949 0 2.208-1.683 3.956-4.386 3.956H4.49C1.887 8.05.2 6.309.2 4.1.2 1.85 1.936.146 4.591.146z"/>
</svg>
