<svg xmlns="http://www.w3.org/2000/svg" width="38" height="32" viewBox="0 0 38 32">
    <path fill="#FFF" fill-rule="evenodd" d="M36.67.822a15.107 15.107 0 0 1-4.883 1.91A7.579 7.579 0 0 0 26.179.244c-4.24 0-7.681 3.528-7.681 7.88 0 .617.066 1.216.198 1.793C12.31 9.59 6.649 6.456 2.856 1.683a8.022 8.022 0 0 0-1.04 3.966c0 2.732 1.357 5.144 3.42 6.557a7.544 7.544 0 0 1-3.483-.982v.096c0 3.82 2.649 7.005 6.167 7.726a7.325 7.325 0 0 1-2.025.278c-.495 0-.978-.048-1.446-.14.978 3.13 3.814 5.408 7.177 5.47a15.174 15.174 0 0 1-9.543 3.373c-.62 0-1.233-.036-1.833-.108a21.389 21.389 0 0 0 11.779 3.537c14.135 0 21.862-12.004 21.862-22.417 0-.343-.006-.685-.02-1.02a15.763 15.763 0 0 0 3.832-4.079 15.05 15.05 0 0 1-4.412 1.24A7.864 7.864 0 0 0 36.67.822"/>
</svg>
